HIERARCHY
ROOT joint_Root
{
	OFFSET 0.0 0.0 0.0
	CHANNELS 6 Xposition Yposition Zposition Zrotation Xrotation Yrotation 
	JOINT Hips
	{
		OFFSET -0.726466 93.3139 -2.00062
		CHANNELS 6 Xposition Yposition Zposition Zrotation Xrotation Yrotation 
		JOINT Spine
		{
			OFFSET 15.7357 0.0 0.0
			CHANNELS 6 Xposition Yposition Zposition Zrotation Xrotation Yrotation 
			JOINT Chest
			{
				OFFSET 8.98455 -0.406207 0.0
				CHANNELS 6 Xposition Yposition Zposition Zrotation Xrotation Yrotation 
				JOINT Neck
				{
					OFFSET 16.3773 0.0 0.0
					CHANNELS 6 Xposition Yposition Zposition Zrotation Xrotation Yrotation 
					JOINT Head
					{
						OFFSET 6.45672 0.0 0.0
						CHANNELS 6 Xposition Yposition Zposition Zrotation Xrotation Yrotation 
						End Site
						{
							OFFSET 0.0 0.0 0.0
						}
					}
				}
				JOINT Shoulder_L
				{
					OFFSET 12.9942 -0.242716 4.98039
					CHANNELS 6 Xposition Yposition Zposition Zrotation Xrotation Yrotation 
					JOINT UpperArm_L
					{
						OFFSET 5.34809 0.0 0.0
						CHANNELS 6 Xposition Yposition Zposition Zrotation Xrotation Yrotation 
						JOINT LowerArm_L
						{
							OFFSET 24.3286 1.87007e-05 0.0
							CHANNELS 6 Xposition Yposition Zposition Zrotation Xrotation Yrotation 
							JOINT Hand_L
							{
								OFFSET 22.2916 0.0 0.0
								CHANNELS 6 Xposition Yposition Zposition Zrotation Xrotation Yrotation 
								End Site
								{
									OFFSET 0.0 0.0 0.0
								}
							}
						}
					}
				}
				JOINT Shoulder_R
				{
					OFFSET 12.9945 -0.242716 -4.98039
					CHANNELS 6 Xposition Yposition Zposition Zrotation Xrotation Yrotation 
					JOINT UpperArm_R
					{
						OFFSET -5.34813 0.0 0.0
						CHANNELS 6 Xposition Yposition Zposition Zrotation Xrotation Yrotation 
						JOINT LowerArm_R
						{
							OFFSET -24.3289 0.000322201 0.0
							CHANNELS 6 Xposition Yposition Zposition Zrotation Xrotation Yrotation 
							JOINT Hand_R
							{
								OFFSET -22.2915 -0.000108084 0.0
								CHANNELS 6 Xposition Yposition Zposition Zrotation Xrotation Yrotation 
								End Site
								{
									OFFSET 0.0 0.0 0.0
								}
							}
						}
					}
				}
			}
		}
		JOINT UpperLeg_L
		{
			OFFSET -2.19248 -6.46944 0.0
			CHANNELS 6 Xposition Yposition Zposition Zrotation Xrotation Yrotation 
			JOINT LowerLeg_L
			{
				OFFSET 39.0811 0.0 -1.23785e-05
				CHANNELS 6 Xposition Yposition Zposition Zrotation Xrotation Yrotation 
				JOINT Foot_L
				{
					OFFSET 40.9854 0.0 -1.26872e-05
					CHANNELS 6 Xposition Yposition Zposition Zrotation Xrotation Yrotation 
					JOINT Toes_L
					{
						OFFSET 11.7543 0.0 0.0
						CHANNELS 6 Xposition Yposition Zposition Zrotation Xrotation Yrotation 
						End Site
						{
							OFFSET 0.0 0.0 0.0
						}
					}
				}
			}
		}
		JOINT UpperLeg_R
		{
			OFFSET -2.19251 6.46944 0.0
			CHANNELS 6 Xposition Yposition Zposition Zrotation Xrotation Yrotation 
			JOINT LowerLeg_R
			{
				OFFSET -39.0811 -0.00228153 -0.0401928
				CHANNELS 6 Xposition Yposition Zposition Zrotation Xrotation Yrotation 
				JOINT Foot_R
				{
					OFFSET -40.9854 0.0 0.0
					CHANNELS 6 Xposition Yposition Zposition Zrotation Xrotation Yrotation 
					JOINT Toes_R
					{
						OFFSET -11.7543 0.0 0.0
						CHANNELS 6 Xposition Yposition Zposition Zrotation Xrotation Yrotation 
						End Site
						{
							OFFSET 0.0 0.0 0.0
						}
					}
				}
			}
		}
	}
}
MOTION
Frames:	7
Frame Time:	0.0333333
0.000000 0.000000 0.000000 0.000000 0.000000 -0.000000 -1.077290 92.233600 -0.491428 88.207500 -0.334112 4.530740 15.735700 0.000005 -0.000001 80.209500 85.631500 -79.071100 8.984550 -0.406207 -0.000000 0.860539 -1.553700 2.286720 16.377300 -0.000001 -0.000001 5.551190 -2.511160 -1.517920 6.456720 -0.000001 -0.000000 4.148360 -1.867910 3.614080 12.994200 -0.242716 4.980390 -88.199200 -5.163180 -70.741900 5.348090 -0.000007 -0.000001 -35.380700 -26.922600 -61.605600 24.328600 0.000019 0.000005 32.619000 -4.304920 -96.689200 22.291600 -0.000001 0.000005 44.534300 5.677740 -23.590600 12.994500 -0.242716 -4.980390 87.803600 6.281910 -70.684000 -5.348130 -0.000001 -0.000004 -66.704000 34.973100 -12.083200 -24.328900 0.000322 -0.000009 1.683160 6.422760 -14.727000 -22.291500 -0.000108 -0.000004 9.689550 5.344160 -1.202800 -2.192480 -6.469440 -0.000000 -175.303000 -6.483620 -2.181370 39.081100 -0.000007 -0.000012 -0.115893 0.271923 23.083700 40.985400 -0.000006 -0.000013 -0.411745 3.770670 -66.559200 11.754300 -0.000000 0.000003 -0.000046 -0.000527 -16.598100 -2.192510 6.469440 -0.000001 179.316000 13.848100 -179.781000 -39.081100 -0.002282 -0.040193 -0.078335 0.226283 19.842500 -40.985400 0.000008 0.000006 2.087340 7.875660 -65.795300 -11.754300 -0.000006 -0.000006 -0.007029 -0.079914 -19.826400
0.000000 0.000000 0.000000 0.000000 0.000000 -0.000000 -1.046340 92.232200 -0.482243 88.231800 -0.586506 4.528810 15.735700 0.000005 -0.000001 80.346900 85.630000 -79.181200 8.984550 -0.406207 -0.000000 0.867395 -1.535150 2.341150 16.377300 -0.000001 -0.000001 5.513260 -2.474990 -1.554250 6.456720 -0.000001 -0.000000 4.051360 -1.804040 3.497550 12.994200 -0.242716 4.980390 -88.227000 -5.109810 -70.834500 5.348090 -0.000007 -0.000001 -35.244100 -26.919900 -61.178400 24.328600 0.000019 0.000005 31.416600 -4.358740 -97.092600 22.291600 -0.000001 0.000005 45.501500 5.674270 -24.148200 12.994500 -0.242716 -4.980390 87.806600 6.289460 -70.729500 -5.348130 -0.000001 -0.000004 -66.308800 35.142000 -12.556600 -24.328900 0.000322 -0.000009 1.646870 5.899070 -15.639100 -22.291500 -0.000108 -0.000004 9.710140 5.350030 -1.378090 -2.192480 -6.469440 -0.000000 -175.344000 -6.643880 -2.118420 39.081100 -0.000007 -0.000012 -0.114256 0.268454 23.055000 40.985400 -0.000006 -0.000013 -0.407354 3.672350 -66.580000 11.754300 -0.000000 0.000003 -0.000041 -0.000480 -16.596200 -2.192510 6.469440 -0.000001 179.239000 13.750600 -179.791000 -39.081100 -0.002282 -0.040193 -0.081970 0.236351 19.843000 -40.985400 0.000008 0.000006 1.928160 8.088900 -65.757100 -11.754300 -0.000006 -0.000006 -0.006883 -0.078659 -19.775200
0.000000 0.000000 0.000000 0.000000 0.000000 -0.000000 -1.038510 92.240400 -0.497015 88.224000 -0.858366 4.447600 15.735700 0.000005 -0.000001 80.299600 85.651200 -79.099800 8.984550 -0.406207 -0.000000 0.824891 -1.537630 2.408800 16.377300 -0.000001 -0.000001 5.421650 -2.521750 -1.469990 6.456720 -0.000001 -0.000000 4.124460 -1.847530 3.466430 12.994200 -0.242716 4.980390 -88.237900 -5.096140 -70.896500 5.348090 -0.000007 -0.000001 -38.959800 -27.760100 -62.060700 24.328600 0.000019 0.000005 28.137000 -3.422770 -96.368500 22.291600 -0.000001 0.000005 44.674300 5.680910 -22.368100 12.994500 -0.242716 -4.980390 87.794700 6.318680 -70.715500 -5.348130 -0.000001 -0.000004 -65.888600 35.350000 -13.089000 -24.328900 0.000322 -0.000009 1.654890 5.543970 -16.659500 -22.291500 -0.000108 -0.000004 9.695320 5.352420 -1.449870 -2.192480 -6.469440 -0.000000 -175.336000 -6.829200 -2.141580 39.081100 -0.000007 -0.000012 -0.115588 0.272358 22.996300 40.985400 -0.000006 -0.000013 -0.420761 3.605060 -66.560600 11.754300 -0.000000 0.000003 -0.000045 -0.000516 -16.597600 -2.192510 6.469440 -0.000001 179.266000 13.641800 -179.892000 -39.081100 -0.002282 -0.040193 -0.082710 0.238745 19.816600 -40.985400 0.000008 0.000006 1.985090 8.225210 -65.720000 -11.754300 -0.000006 -0.000006 -0.006875 -0.078583 -19.772100
0.000000 0.000000 0.000000 0.000000 0.000000 -0.000000 -1.051200 92.242900 -0.492393 88.169500 -1.115960 4.417070 15.735700 0.000005 -0.000001 80.062800 85.647900 -78.811200 8.984550 -0.406207 -0.000000 0.826421 -1.577270 2.512720 16.377300 -0.000001 -0.000001 5.424820 -2.613290 -1.348550 6.456720 -0.000001 -0.000000 4.115850 -1.929790 3.514020 12.994200 -0.242716 4.980390 -88.232000 -5.125260 -70.938200 5.348090 -0.000007 -0.000001 -45.265000 -29.253300 -63.976300 24.328600 0.000019 0.000005 24.819000 -2.012880 -94.339700 22.291600 -0.000001 0.000005 43.837100 5.681560 -20.329000 12.994500 -0.242716 -4.980390 87.782400 6.338350 -70.671300 -5.348130 -0.000001 -0.000004 -65.408600 35.666200 -13.704500 -24.328900 0.000322 -0.000009 1.614690 5.089360 -17.640500 -22.291500 -0.000108 -0.000004 9.728090 5.354940 -1.526170 -2.192480 -6.469440 -0.000000 -175.261000 -7.001710 -2.128480 39.081100 -0.000007 -0.000012 -0.115964 0.273225 22.997800 40.985400 -0.000006 -0.000013 -0.448173 3.535850 -66.584800 11.754300 -0.000000 0.000003 -0.000038 -0.000448 -16.595000 -2.192510 6.469440 -0.000001 179.341000 13.484300 -179.908000 -39.081100 -0.002282 -0.040193 -0.081594 0.236469 19.753200 -40.985400 0.000008 0.000006 1.969390 8.337970 -65.670100 -11.754300 -0.000006 -0.000006 -0.007111 -0.080616 -19.855000
0.000000 0.000000 0.000000 0.000000 0.000000 -0.000000 -1.067610 92.245500 -0.511048 88.148200 -1.398120 4.376050 15.735700 0.000005 -0.000001 79.868100 85.658700 -78.565900 8.984550 -0.406207 -0.000000 0.801251 -1.605960 2.613700 16.377300 -0.000001 -0.000001 5.466130 -2.674590 -1.176080 6.456720 -0.000001 -0.000000 4.140350 -2.012410 3.518410 12.994200 -0.242716 4.980390 -88.200300 -5.226900 -70.970600 5.348090 -0.000007 -0.000001 -53.237600 -30.824300 -66.727500 24.328600 0.000019 0.000005 21.906300 -0.560727 -91.389400 22.291600 -0.000001 0.000005 43.157600 5.673470 -17.928200 12.994500 -0.242716 -4.980390 87.761000 6.384550 -70.628700 -5.348130 -0.000001 -0.000004 -65.019600 35.795600 -14.165500 -24.328900 0.000322 -0.000009 1.581370 4.719530 -18.560500 -22.291500 -0.000108 -0.000004 9.790760 5.354940 -1.525740 -2.192480 -6.469440 -0.000000 -175.239000 -7.108180 -2.133450 39.081100 -0.000007 -0.000012 -0.115390 0.272042 22.985000 40.985400 -0.000006 -0.000013 -0.498448 3.348410 -66.587800 11.754300 -0.000000 0.000003 -0.000036 -0.000423 -16.594000 -2.192510 6.469440 -0.000001 179.405000 13.263600 -179.987000 -39.081100 -0.002282 -0.040193 -0.081753 0.236900 19.754100 -40.985400 0.000008 0.000006 2.006940 8.385430 -65.642900 -11.754300 -0.000006 -0.000006 -0.006915 -0.078928 -19.786100
0.000000 0.000000 0.000000 0.000000 0.000000 -0.000000 -1.086790 92.260000 -0.537775 88.136600 -1.681320 4.311590 15.735700 0.000005 -0.000001 79.773900 85.664700 -78.426000 8.984550 -0.406207 -0.000000 0.787711 -1.620810 2.705000 16.377300 -0.000001 -0.000001 5.503700 -2.751810 -1.015760 6.456720 -0.000001 -0.000000 4.166240 -2.108170 3.589740 12.994200 -0.242716 4.980390 -88.153100 -5.357840 -70.948300 5.348090 -0.000007 -0.000001 -62.158000 -32.111500 -70.381300 24.328600 0.000019 0.000005 17.913100 0.733881 -87.722100 22.291600 -0.000001 0.000005 42.878100 5.656660 -15.694100 12.994500 -0.242716 -4.980390 87.717100 6.495750 -70.588300 -5.348130 -0.000001 -0.000004 -64.665600 35.770000 -14.586600 -24.328900 0.000322 -0.000009 1.589950 4.559210 -19.260200 -22.291500 -0.000108 -0.000004 9.866150 5.353570 -1.485140 -2.192480 -6.469440 -0.000000 -175.223000 -7.205080 -2.118870 39.081100 -0.000007 -0.000012 -0.115046 0.272621 22.879800 40.985400 -0.000006 -0.000013 -0.548852 3.194690 -66.542300 11.754300 -0.000000 0.000003 -0.000040 -0.000462 -16.595500 -2.192510 6.469440 -0.000001 179.470000 13.116000 179.932000 -39.081100 -0.002282 -0.040193 -0.077867 0.226689 19.705000 -40.985400 0.000008 0.000006 2.172780 8.483470 -65.607700 -11.754300 -0.000006 -0.000006 -0.007104 -0.080554 -19.852500
0.000000 0.000000 0.000000 0.000000 0.000000 -0.000000 -1.125250 92.253600 -0.549006 88.101900 -1.878890 4.257550 15.735700 0.000005 -0.000001 79.848600 85.675000 -78.460000 8.984550 -0.406207 -0.000000 0.770029 -1.608750 2.786000 16.377300 -0.000001 -0.000001 5.558310 -2.834950 -0.841333 6.456720 -0.000001 -0.000000 4.170590 -2.234810 3.747540 12.994200 -0.242716 4.980390 -88.103700 -5.480200 -70.879500 5.348090 -0.000007 -0.000001 -71.166000 -32.681300 -74.713100 24.328600 0.000019 0.000005 12.499700 1.449780 -83.473100 22.291600 -0.000001 0.000005 43.149600 5.631510 -13.466300 12.994500 -0.242716 -4.980390 87.691000 6.556560 -70.550400 -5.348130 -0.000001 -0.000004 -64.486700 35.784200 -14.802900 -24.328900 0.000322 -0.000009 1.538240 4.301780 -19.709900 -22.291500 -0.000108 -0.000004 9.957740 5.358680 -1.639440 -2.192480 -6.469440 -0.000000 -175.158000 -7.394970 -2.189490 39.081100 -0.000007 -0.000012 -0.115338 0.272408 22.947900 40.985400 -0.000006 -0.000013 -0.576698 3.166050 -66.573300 11.754300 -0.000000 0.000003 -0.000036 -0.000424 -16.594100 -2.192510 6.469440 -0.000001 179.532000 13.012900 179.842000 -39.081100 -0.002282 -0.040193 -0.081645 0.237140 19.712700 -40.985400 0.000008 0.000006 2.039640 8.602630 -65.556800 -11.754300 -0.000006 -0.000006 -0.006978 -0.079470 -19.808300
